<svg width="170" height="44" viewBox="0 0 170 44" fill="none" xmlns="http://www.w3.org/2000/svg">
<g clip-path="url(#clip0_0_1)">
<path d="M35.4588 23.0682L39.7076 19.8363L36.8397 3.50305L31.6265 8.66548L31.8859 10.1513L36.0251 6.05535L38.3485 19.3121L34.6989 22.0921L34.0413 22.591L34.2569 23.3864L36.2479 30.7757L24.1994 36.8275L23.0486 37.4059L23.6733 38.523L26.048 42.7672H16.8636L14.8324 40.4932H13.1702L16.3047 43.9999H28.1596L24.762 37.9265L37.7129 31.4228L35.4588 23.0682Z" fill="white"/>
<path d="M30.9761 27.9198L18.0289 34.4198L21.4265 40.4933H9.56793L0 29.7924L30.103 0L32.9708 16.3332L28.7221 19.5652L22.0293 24.6589L29.1349 21.0835L30.9761 27.9198Z" fill="#FFBE00"/>
</g>
<path d="M53.3874 20.6182L52.0203 25.5934H57.0722L55.9134 29.7406H50.8577L48.1273 39.632H42L48.4379 16.4011H59.6057L58.4431 20.6182H53.3874Z" fill="#FFC042"/>
<path d="M72.8147 16.4011L70.4024 39.632H64.4947L64.9378 36.0147H61.1811L59.5678 39.632H54.4971L64.9113 16.4011H72.8147ZM65.3733 32.3643L66.3276 24.2318L62.7754 32.3643H65.3733Z" fill="#FFC042"/>
<path d="M73.4661 37.0561C73.4705 36.7884 73.5048 36.5219 73.5683 36.2613L74.7953 31.8123H80.9075L79.8698 35.6467C79.833 35.8003 79.8102 35.9567 79.8017 36.1141C79.8017 36.5115 80.0743 36.7102 80.8242 36.7102C81.68 36.7102 82.0549 36.379 82.2594 35.6467L83.4902 31.2309C83.527 31.0898 83.5499 30.9457 83.5584 30.8004C83.5584 30.3036 83.2516 30.0055 82.6684 30.0055H79.5972C77.2417 30.0055 76.045 29.0414 76.045 27.713C76.0455 27.4776 76.0799 27.2435 76.1472 27.0175L78.0407 20.081C78.961 16.7691 83.0282 16 86.4403 16C89.788 16 92.9652 16.6329 92.9652 18.9218C92.9512 19.2021 92.9041 19.4799 92.8251 19.7498L91.4959 24.5667H85.3837L86.5198 20.3827C86.5566 20.2416 86.5794 20.0975 86.588 19.9522C86.588 19.5216 86.2812 19.3229 85.5314 19.3229C84.6755 19.3229 84.2665 19.6541 84.062 20.3827L82.8994 24.6992C82.8626 24.8402 82.8398 24.9844 82.8313 25.1297C82.8238 25.2421 82.8423 25.3548 82.8854 25.4593C82.9286 25.5639 82.9953 25.6577 83.0806 25.734C83.166 25.8102 83.2678 25.8669 83.3787 25.8999C83.4895 25.9328 83.6066 25.9413 83.7212 25.9246H86.8606C89.2199 25.9246 90.4128 26.8887 90.4128 28.2171C90.4123 28.4524 90.3779 28.6865 90.3106 28.9126L88.364 35.9043C87.4438 39.2309 83.6076 40 79.8698 40C76.81 40 73.4661 39.3634 73.4661 37.0561Z" fill="#FFC042"/>
<path d="M109.151 20.6182H104.864L99.5888 39.632H93.4766L98.7329 20.6182H94.4309L95.5935 16.4011H110.31L109.151 20.6182Z" fill="#FFC042"/>
<path d="M117.584 20.6182L116.225 25.5934H121.28L120.118 29.7406H115.055L112.324 39.632H106.212L112.631 16.4011H123.799L122.636 20.6182H117.584Z" fill="#F7F5FA"/>
<path d="M132.164 20.6182L130.797 25.5934H135.853L134.69 29.7406H129.638L128.067 35.4149H133.119L131.96 39.632H120.792L127.23 16.4011H138.379L137.22 20.6182H132.164Z" fill="#F7F5FA"/>
<path d="M147.085 20.6182L145.722 25.5934H150.773L149.615 29.7406H144.559L142.987 35.4149H148.035L146.899 39.632H135.716L142.135 16.4011H153.303L152.14 20.6182H147.085Z" fill="#F7F5FA"/>
<path d="M168.838 20.6182H164.536L159.279 39.632H153.163L158.423 20.6182H154.121L155.284 16.4011H170L168.838 20.6182Z" fill="#F7F5FA"/>
<defs>
<clipPath id="clip0_0_1">
<rect width="40" height="44" fill="white"/>
</clipPath>
</defs>
</svg>
